# xmcd CD database file
#
# Track frame offsets:
#	182
#	19555
#	40117
#	56267
#	72200
#	96617
#	106002
#	123445
#	139657
#	156697
#	175530
#	190145
#	206552
#
# Disc length: 2965 seconds
#
# Revision: 2
# Processed by: cddbd v1.5.1PL2 Copyright (c) Steve Scherf et al.
# Submitted via: CDex 1.51
#
DISCID=ad0b930d
DTITLE=Archie Edwards - Blues 'n Bones
DYEAR=1994
DGENRE=Blues
TTITLE0=John Henry
TTITLE1=Meet Me in the Bottom
TTITLE2=I Called My Baby Long Distance
TTITLE3=That Won't Do
TTITLE4=My Old School Mates
TTITLE5=Hen's Cackle
TTITLE6=Saturday Night Hop
TTITLE7=Baby, Please Gimme a Break
TTITLE8=T for Texas
TTITLE9=Sitting on Top of the World
TTITLE10=Payday
TTITLE11=Take Me Back Baby
TTITLE12=Little Girl
EXTD=YEAR: 1994
EXTT0=
EXTT1=
EXTT2=
EXTT3=
EXTT4=
EXTT5=
EXTT6=
EXTT7=
EXTT8=
EXTT9=
EXTT10=
EXTT11=
EXTT12=
PLAYORDER=
